<?xml version="1.0" encoding="utf-8"?>
<!-- Generator: Adobe Illustrator 16.0.0, SVG Export Plug-In . SVG Version: 6.00 Build 0)  -->
<!DOCTYPE svg PUBLIC "-//W3C//DTD SVG 1.1//EN" "http://www.w3.org/Graphics/SVG/1.1/DTD/svg11.dtd">
<svg version="1.1" id="Layer_1" xmlns="http://www.w3.org/2000/svg" xmlns:xlink="http://www.w3.org/1999/xlink" x="0px" y="0px"
	 width="800px" height="800px" viewBox="0 0 800 800" enable-background="new 0 0 800 800" xml:space="preserve">
<path fill="#FF0000" d="M400,66.667C216,66.667,66.667,216,66.667,400S216,733.333,400,733.333S733.333,584,733.333,400
	S584,66.667,400,66.667z M517.667,401c-5,5-11.334,7.333-17.667,7.333S487.333,406,482.333,401L425,343.667v173
	c0,13.666-11.334,25-25,25c-13.667,0-25-11.334-25-25v-173L317.667,401c-9.667,9.667-25.667,9.667-35.333,0
	c-9.667-9.667-9.667-25.667,0-35.333l100-100C392,256,408,256,417.666,265.667l100.001,100
	C527.333,375.333,527.333,391.333,517.667,401z"/>
</svg>
